<mxfile host="app.diagrams.net" modified="2022-05-18T02:23:31.473Z" agent="5.0 (Windows NT 10.0; Win64; x64) AppleWebKit/537.36 (KHTML, like Gecko) Chrome/101.0.4951.54 Safari/537.36 Edg/101.0.1210.39" etag="T7GkfwIArGKiWvXjT4Qb" version="18.0.3" type="github">
  <diagram id="Rtc13ofyL5DTFA4s6Pv0" name="Page-1">
    <mxGraphModel dx="956" dy="705" grid="1" gridSize="10" guides="1" tooltips="1" connect="1" arrows="1" fold="1" page="1" pageScale="1" pageWidth="827" pageHeight="1169" math="0" shadow="0">
      <root>
        <mxCell id="0" />
        <mxCell id="1" parent="0" />
        <mxCell id="1xXsGoq21Cz2QfQHcth8-1" value=".YUV" style="rounded=1;whiteSpace=wrap;html=1;fontFamily=Lucida Console;fontSize=16;" vertex="1" parent="1">
          <mxGeometry x="80" y="220" width="120" height="60" as="geometry" />
        </mxCell>
      </root>
    </mxGraphModel>
  </diagram>
</mxfile>
